# xmcd
# 
# Track frame offsets:
#     150
#     15831
#     32275
#     48077
#     70062
#     88765
#     110835
#     128515
#     149875
#     172310
# 
# Disc length: 2595
# 
# Revision: 4
# Processed by: cddbd v1.5.2PL0 Copyright (c) Steve Scherf et al.
# Submitted via: fre:ac v1.0.17
# 
DISCID=830a210a
DTITLE=moumoon - No Night Land
DYEAR=2012
DGENRE=JPop
TTITLE0=Chu Chu
TTITLE1=Yes／No continue ?
TTITLE2=ジェットコースター
TTITLE3=Butterfly Effect
TTITLE4=うたをうたおう
TTITLE5=I found love.
TTITLE6=トモダチ／コイビト
TTITLE7=Bon Appetit
TTITLE8=We go
TTITLE9=good night (studio live recording)
EXTD=
EXTT0=
EXTT1=
EXTT2=
EXTT3=
EXTT4=
EXTT5=
EXTT6=
EXTT7=
EXTT8=
EXTT9=
PLAYORDER=
